<svg width="64" height="73" viewBox="0 0 64 73" fill="none" xmlns="http://www.w3.org/2000/svg">
<path d="M29.1099 1.44338C30.6569 0.550211 32.5629 0.550212 34.1099 1.44338L60.7199 16.8066C62.2669 17.6998 63.2199 19.3504 63.2199 21.1368V51.8632C63.2199 53.6496 62.2669 55.3002 60.7199 56.1934L34.1099 71.5566C32.5629 72.4498 30.6569 72.4498 29.1099 71.5566L2.5 56.1934C0.952994 55.3002 0 53.6496 0 51.8632V21.1368C0 19.3504 0.952995 17.6998 2.5 16.8066L29.1099 1.44338Z" fill="#437FC8" fill-opacity="0.29"/>
<path d="M32.5 12C18.9692 12 8 22.9692 8 36.5C8 50.0308 18.9692 61 32.5 61C46.0308 61 57 50.0308 57 36.5C56.9848 22.9756 46.0244 12.0152 32.5 12ZM32.5 59.3667C19.8712 59.3667 9.63333 49.1288 9.63333 36.5C9.63333 23.8712 19.8712 13.6333 32.5 13.6333C45.1288 13.6333 55.3667 23.8712 55.3667 36.5C55.3523 49.1228 45.1228 59.3523 32.5 59.3667Z" fill="#404040"/>
<path d="M21.1416 34.9484C21.1971 34.9596 21.2537 34.9656 21.3099 34.9656C21.6959 34.9648 22.0289 34.694 22.1078 34.3164C22.2103 33.8323 22.3467 33.3566 22.5162 32.892C22.6195 32.6168 22.5668 32.3074 22.3786 32.0817C22.1904 31.856 21.8953 31.7491 21.6062 31.8014C21.3167 31.854 21.0782 32.0578 20.9809 32.3349C20.7867 32.8721 20.63 33.4223 20.5128 33.9814C20.4203 34.422 20.7014 34.8543 21.1416 34.9484Z" fill="#404040"/>
<path d="M23.2324 30.6199C23.4947 30.6203 23.7408 30.4951 23.8947 30.2829C24.1854 29.8822 24.5028 29.5022 24.8454 29.1453C25.1576 28.8199 25.1472 28.3027 24.8218 27.9905C24.4964 27.6782 23.9792 27.6886 23.667 28.014C23.2722 28.4235 22.9066 28.8602 22.5728 29.3207C22.3926 29.5692 22.3666 29.8973 22.5058 30.1705C22.645 30.444 22.9257 30.6163 23.2324 30.6167V30.6199Z" fill="#404040"/>
<path d="M26.757 27.4293C26.9006 27.4289 27.0417 27.3907 27.1653 27.3181C27.5908 27.0689 28.0339 26.8503 28.4908 26.6649C28.9091 26.495 29.1101 26.0181 28.9402 25.5998C28.77 25.1819 28.2934 24.9809 27.8751 25.1508C27.3476 25.3661 26.8352 25.6182 26.3423 25.9045C26.0233 26.0899 25.8678 26.4659 25.9635 26.8224C26.0588 27.1789 26.3818 27.4269 26.7506 27.4277L26.757 27.4293Z" fill="#404040"/>
<path d="M44.2707 33.1405C44.2659 33.1189 44.2707 33.0986 44.2647 33.0775C44.2503 33.0252 44.2296 32.9738 44.2144 32.9215C44.1989 32.8693 44.175 32.8047 44.1562 32.7457C44.0573 32.4402 43.9465 32.1384 43.8241 31.8393C43.8017 31.7855 43.7806 31.7308 43.7579 31.6758C43.7284 31.608 43.7048 31.5386 43.6761 31.4716C43.6618 31.4493 43.6462 31.4278 43.6295 31.4074C43.1733 30.4073 42.5847 29.4734 41.8793 28.6305C41.8697 28.6177 41.8673 28.6013 41.8566 28.5882C41.4885 28.1543 41.0909 27.7464 40.6667 27.3672C40.6403 27.35 40.6132 27.3341 40.5849 27.3197C39.7746 26.6055 38.8734 26.0014 37.9048 25.5233C37.8829 25.5038 37.8598 25.4862 37.8354 25.4703C37.6783 25.3941 37.5168 25.3279 37.3557 25.2585C37.3095 25.2382 37.2636 25.2163 37.2162 25.1967C36.8967 25.0635 36.5753 24.9395 36.2476 24.8346C36.2388 24.8346 36.2304 24.8346 36.2216 24.8346C35.1657 24.5021 34.0695 24.3142 32.963 24.2772C32.9378 24.2772 32.9163 24.2608 32.8912 24.26C32.8094 24.26 32.7221 24.26 32.6388 24.26C32.5921 24.26 32.5474 24.2524 32.5008 24.2524C32.4876 24.2524 32.4773 24.2592 32.4641 24.26C32.037 24.2588 31.6099 24.2796 31.1853 24.3226C30.7554 24.3697 30.4368 24.7437 30.4587 25.1756C30.4803 25.607 30.8344 25.9472 31.267 25.9512C31.2961 25.9512 31.3252 25.9496 31.3543 25.9464C31.7714 25.9041 32.1909 25.8858 32.61 25.8914C33.979 25.9025 35.332 26.1801 36.5949 26.708L36.6838 26.7475C37.8227 27.2408 38.8666 27.929 39.7682 28.7816C39.9888 28.9893 40.1977 29.2063 40.3987 29.4352C41.1719 30.2917 41.8003 31.2683 42.2593 32.327C42.2773 32.3677 42.2928 32.4087 42.31 32.4502C42.4188 32.711 42.5161 32.977 42.6022 33.2481C42.6186 33.2988 42.6365 33.3494 42.6521 33.4001C42.9599 34.4045 43.1167 35.4493 43.1167 36.5C43.1167 36.8266 43.0963 37.1484 43.0676 37.467C43.0604 37.5488 43.0513 37.6301 43.0425 37.7119C42.7303 40.4295 41.3796 42.9213 39.2734 44.6667L39.2303 44.7034C38.1824 45.5655 36.9789 46.2183 35.6849 46.6266C35.6482 46.6382 35.6099 46.6478 35.5733 46.6585C35.3045 46.7403 35.0309 46.8097 34.7566 46.8703L34.554 46.9133C28.8856 48.0371 23.3627 44.4107 22.1405 38.763L23.9685 39.685C24.372 39.8867 24.8625 39.7228 25.0643 39.3193C25.266 38.9154 25.1021 38.4249 24.6982 38.2231L21.4315 36.5898C21.3207 36.5355 21.1986 36.5076 21.0746 36.508C21.0631 36.5044 21.0511 36.5016 21.0387 36.5C21.0152 36.5052 20.9917 36.512 20.9686 36.5196C20.884 36.5284 20.8011 36.5507 20.7237 36.5858C20.5566 36.6592 20.4195 36.7868 20.3349 36.9483L18.7016 40.2149C18.4998 40.6189 18.6637 41.1093 19.0673 41.3111C19.4712 41.5125 19.9617 41.349 20.1635 40.9451L20.7213 39.8297C20.953 40.6504 21.2716 41.4443 21.672 42.198C21.6776 42.2207 21.6843 42.243 21.6923 42.265C21.9607 42.7682 22.2641 43.2515 22.6003 43.7121C22.6206 43.74 22.6525 43.7511 22.6757 43.7759C23.3105 44.6244 24.0514 45.3885 24.8804 46.0484C24.9083 46.0879 24.9398 46.1246 24.9745 46.1581C25.4227 46.5106 25.8953 46.8308 26.3889 47.1167C26.4496 47.1522 26.5146 47.1797 26.5823 47.1985C27.4943 47.7065 28.4677 48.0961 29.4782 48.3573C29.5021 48.3704 29.5268 48.382 29.5519 48.3924C30.1058 48.5291 30.6685 48.6272 31.2359 48.6854H31.3173C31.7084 48.7249 32.104 48.7469 32.504 48.7469C33.1695 48.7425 33.8335 48.6834 34.4894 48.571H34.4994C34.5472 48.5714 34.5951 48.567 34.6421 48.5582C34.7131 48.5459 34.7825 48.5271 34.8535 48.5132C34.9444 48.496 35.0333 48.4757 35.1231 48.4562C35.4325 48.3892 35.7375 48.3102 36.0386 48.2201C36.0861 48.2061 36.1343 48.1946 36.1806 48.1798C36.2272 48.1655 36.2623 48.1579 36.2998 48.1455C36.3185 48.1391 36.3309 48.1252 36.3481 48.118C37.402 47.7711 38.4037 47.2818 39.3256 46.6641C39.3372 46.6569 39.3495 46.6553 39.3607 46.6478C39.6737 46.4364 39.974 46.2035 40.2683 45.9627C40.287 45.9471 40.305 45.9308 40.3245 45.9152C40.4517 45.8092 40.5817 45.7063 40.7041 45.5962C40.7261 45.5703 40.746 45.5432 40.764 45.5145C41.5495 44.7963 42.2386 43.9792 42.8144 43.084C42.8443 43.0525 42.8714 43.019 42.8961 42.9835C43.198 42.5002 43.466 41.9966 43.698 41.4758C43.7064 41.4579 43.704 41.4391 43.7104 41.4212C44.1502 40.4195 44.4525 39.3624 44.6088 38.2797C44.6192 38.253 44.6284 38.2255 44.6355 38.198C44.6495 38.0991 44.6559 37.9986 44.6674 37.8989C44.679 37.7992 44.6886 37.7031 44.6977 37.605C44.7312 37.2358 44.754 36.8649 44.754 36.4945V36.447C44.754 36.4422 44.754 36.437 44.754 36.4315C44.7436 35.3173 44.5813 34.2099 44.2707 33.1405V33.1405Z" fill="#404040"/>
<path d="M32.5 29.15C32.049 29.15 31.6833 29.5157 31.6833 29.9667V36.5C31.6833 36.7166 31.7695 36.9243 31.9226 37.0774L35.1893 40.3441C35.5099 40.6535 36.0191 40.6492 36.3341 40.3341C36.6491 40.0191 36.6535 39.5099 36.3441 39.1893L33.3167 36.1619V29.9667C33.3167 29.5157 32.951 29.15 32.5 29.15V29.15Z" fill="#404040"/>
</svg>
