<svg width="74" height="74" viewBox="0 0 74 74" fill="none" xmlns="http://www.w3.org/2000/svg">
<path d="M34.1329 2.08888C35.6799 1.19572 37.5859 1.19572 39.1329 2.08888L65.7428 17.4521C67.2898 18.3453 68.2428 19.9959 68.2428 21.7823V52.5088C68.2428 54.2951 67.2898 55.9457 65.7428 56.8389L39.1329 72.2021C37.5859 73.0953 35.6799 73.0953 34.1329 72.2021L7.52294 56.8389C5.97594 55.9457 5.02295 54.2951 5.02295 52.5088V21.7823C5.02295 19.9959 5.97594 18.3453 7.52295 17.4521L34.1329 2.08888Z" fill="#437FC8" fill-opacity="0.29"/>
<path d="M55.6489 35.3791L54.5877 33.0437C54.5278 32.9121 54.5278 32.7611 54.5877 32.6295L55.6489 30.2937C55.998 29.5251 55.8183 28.6214 55.2014 28.0446L53.3273 26.2933C53.2216 26.1945 53.164 26.0548 53.169 25.9103L53.2552 23.3464C53.2838 22.5026 52.7719 21.7362 51.9815 21.4398L49.5797 20.5384C49.4443 20.4877 49.3375 20.3809 49.2868 20.2454L48.3857 17.8437C48.089 17.0533 47.3199 16.5406 46.4788 16.57L43.9153 16.6566C43.7688 16.6608 43.6311 16.6036 43.5323 16.4979L41.7806 14.6237C41.2042 14.0069 40.3001 13.8272 39.5315 14.1767L37.1961 15.2375C37.0645 15.2974 36.9134 15.297 36.7818 15.2375L34.4461 14.1767C33.6774 13.8272 32.7737 14.0069 32.197 14.6237L30.4456 16.4979C30.3468 16.6036 30.208 16.6615 30.0626 16.6566L27.4988 16.57C26.6546 16.5421 25.889 17.0537 25.5922 17.8441L24.6908 20.2458C24.6401 20.3813 24.5332 20.4881 24.3978 20.5388L21.9961 21.4398C21.2057 21.7366 20.6938 22.5026 20.7224 23.3464L20.809 25.9103C20.8135 26.0548 20.7559 26.1945 20.6503 26.2933L18.7765 28.0446C18.1597 28.6214 17.9796 29.5251 18.329 30.2937L19.3899 32.6291C19.4498 32.7607 19.4498 32.9117 19.3899 33.0437L18.329 35.3791C17.9796 36.1477 18.1593 37.0514 18.7761 37.6282L20.6503 39.3799C20.7559 39.4787 20.8135 39.618 20.809 39.7625L20.7224 42.3264C20.6938 43.1702 21.2057 43.9366 21.9961 44.233L24.3978 45.134C24.5332 45.1851 24.6401 45.2919 24.6908 45.427L25.5922 47.8287C25.6216 47.9073 25.6555 47.9832 25.6941 48.0557L19.6691 57.3422C19.3769 57.7923 19.3746 58.3527 19.663 58.8051C19.951 59.2575 20.4595 59.4925 20.9909 59.4181L25.8955 58.7326C25.9611 58.7235 26.0263 58.754 26.061 58.8104L28.8675 63.3575C29.1124 63.7543 29.537 63.9946 30.0031 63.9996C30.0085 63.9996 30.0134 63.9999 30.0188 63.9999C30.4788 63.9999 30.9023 63.7703 31.1529 63.3835L39.0169 51.2623L39.5315 51.4961C40.3001 51.8452 41.2038 51.6655 41.7806 51.0487L43.5323 49.1749C43.6311 49.0692 43.7715 49.0113 43.9149 49.0162L46.4788 49.1028C47.323 49.1314 48.0886 48.6195 48.3854 47.8287L49.2864 45.427C49.3371 45.2916 49.4443 45.1847 49.5794 45.134L51.9811 44.233C52.7719 43.9362 53.2838 43.1698 53.2552 42.3264L53.1686 39.7625C53.1636 39.618 53.2216 39.4783 53.3273 39.3795L55.2011 37.6278C55.8183 37.0514 55.998 36.1477 55.6489 35.3791V35.3791ZM30.0207 62.4374L27.3077 58.0414C26.9678 57.4905 26.3345 57.1926 25.6929 57.2819L21.0317 57.9334L26.8232 49.0071C27.0368 49.0769 27.2649 49.1104 27.4988 49.1028L30.0626 49.0162C30.208 49.0113 30.3468 49.0692 30.4456 49.1749L32.1973 51.0487C32.5777 51.4557 33.1007 51.6724 33.6332 51.6724C33.9075 51.6724 34.1848 51.6148 34.4461 51.4961L36.7818 50.4353C36.9134 50.3754 37.0645 50.3754 37.1961 50.4353L37.6684 50.6497L30.0207 62.4374ZM54.2012 36.5578L52.3271 38.3095C51.9124 38.6971 51.6858 39.2449 51.7049 39.8121L51.7915 42.3756C51.7987 42.5908 51.6683 42.7861 51.4669 42.8616L49.0651 43.7626C48.5337 43.9621 48.1145 44.381 47.9154 44.9124L47.014 47.3141C46.9384 47.5155 46.7416 47.646 46.5284 47.6387L43.9645 47.5521C43.3976 47.5334 42.8495 47.76 42.4623 48.1747L40.7106 50.0485C40.5637 50.2056 40.3333 50.2518 40.1372 50.1625L37.8019 49.1017C37.2854 48.8667 36.6926 48.8667 36.1757 49.1017L33.8403 50.1625C33.6443 50.2514 33.4142 50.2056 33.2674 50.0485L31.5157 48.1747C31.1433 47.7761 30.623 47.5514 30.0798 47.5514C30.0577 47.5514 30.0356 47.5518 30.013 47.5525L27.4496 47.6391C27.2344 47.6464 27.0391 47.5159 26.9636 47.3145L26.0626 44.9128C25.863 44.3814 25.4438 43.9621 24.9128 43.763L22.5111 42.8616C22.3097 42.7861 22.1792 42.5908 22.1864 42.376L22.2727 39.8121C22.2921 39.2449 22.0651 38.6971 21.6505 38.3099L19.7767 36.5578C19.6195 36.411 19.5734 36.1809 19.6626 35.9849L20.7235 33.6495C20.9585 33.133 20.9585 32.5402 20.7235 32.0233L19.6626 29.6879C19.5738 29.4923 19.6195 29.2618 19.7767 29.115L21.6505 27.3633C22.0651 26.9757 22.2921 26.4279 22.273 25.8607L22.1864 23.2968C22.1792 23.0821 22.3097 22.8867 22.5111 22.8112L24.9128 21.9102C25.4442 21.7107 25.863 21.2918 26.0626 20.7604L26.9636 18.3587C27.0391 18.1573 27.2337 18.0272 27.4496 18.0341L30.0134 18.1203C30.5814 18.1405 31.1281 17.9128 31.5157 17.4981L33.2674 15.6243C33.4142 15.4668 33.6446 15.4214 33.8403 15.5103L36.1757 16.5711C36.6926 16.8057 37.285 16.8057 37.8019 16.5711L40.1372 15.5103C40.3333 15.4214 40.5637 15.4672 40.7106 15.6243L42.4623 17.4981C42.8495 17.9128 43.3988 18.1409 43.9645 18.1207L46.5284 18.0341C46.7405 18.0272 46.9384 18.1573 47.014 18.3587L47.9154 20.7604C48.1145 21.2918 48.5337 21.7107 49.0651 21.9102L51.4669 22.8112C51.6683 22.8871 51.7987 23.0821 51.7915 23.2972L51.7049 25.8611C51.6858 26.4283 51.9124 26.9757 52.3271 27.3633L54.2012 29.115C54.3584 29.2618 54.4042 29.4923 54.3153 29.6879L53.254 32.0233C53.0194 32.5402 53.0194 33.133 53.254 33.6495L54.3149 35.9849C54.4042 36.1809 54.3584 36.411 54.2012 36.5578V36.5578Z" fill="#404040"/>
<path d="M49.6396 33.5835C49.2379 33.5377 48.8744 33.8249 48.8275 34.2266C48.1305 40.2291 43.0413 44.7552 36.9889 44.7552C30.9331 44.7552 25.8435 40.226 25.1497 34.2201C25.1031 33.8185 24.74 33.5293 24.3379 33.5766C23.9362 33.6231 23.6478 33.9863 23.6943 34.3884C24.4737 41.1335 30.1893 46.22 36.9889 46.22C43.7848 46.22 49.5 41.1366 50.2828 34.3952C50.3293 33.9935 50.0413 33.63 49.6396 33.5835V33.5835Z" fill="#404040"/>
<path d="M36.989 19.4528C30.187 19.4528 24.4711 24.5412 23.6936 31.289C23.6475 31.6907 23.9359 32.0538 24.3376 32.1004C24.3662 32.1038 24.3944 32.1053 24.4222 32.1053C24.7892 32.1053 25.1058 31.8299 25.1489 31.4565C25.8413 25.4483 30.9313 20.9176 36.989 20.9176C43.0452 20.9176 48.1352 25.4472 48.8283 31.4538C48.8748 31.8555 49.2376 32.1439 49.6401 32.0973C50.0421 32.0512 50.3301 31.6876 50.2836 31.2859C49.505 24.54 43.7895 19.4528 36.989 19.4528Z" fill="#404040"/>
<path d="M49.5901 50.0694C49.37 49.7299 48.916 49.6334 48.5769 49.8535C48.2374 50.0736 48.1409 50.5272 48.361 50.8667L52.9459 57.9334L48.2851 57.2823C47.6438 57.1926 47.0098 57.4905 46.6703 58.0414L43.9569 62.4374L39.2076 55.1174C38.9875 54.7779 38.5339 54.6814 38.1948 54.9015C37.8553 55.1216 37.7588 55.5752 37.9789 55.9147L42.8247 63.3835C43.0757 63.7703 43.4988 63.9999 43.9588 63.9999H43.9745C44.4406 63.9946 44.8652 63.7547 45.1105 63.3579L47.9166 58.8104C47.9517 58.754 48.0169 58.7235 48.0821 58.7326L52.9867 59.4181C53.5177 59.4929 54.0266 59.2575 54.315 58.8051C54.603 58.3527 54.6007 57.7923 54.3089 57.3425L49.5901 50.0694Z" fill="#404040"/>
</svg>
