<svg width="74" height="74" viewBox="0 0 74 74" fill="none" xmlns="http://www.w3.org/2000/svg">
<path d="M34.1327 2.08888C35.6797 1.19572 37.5857 1.19572 39.1327 2.08888L65.7426 17.4521C67.2896 18.3453 68.2426 19.9959 68.2426 21.7823V52.5088C68.2426 54.2951 67.2896 55.9457 65.7426 56.8389L39.1327 72.2021C37.5857 73.0953 35.6797 73.0953 34.1327 72.2021L7.52276 56.8389C5.97576 55.9457 5.02276 54.2951 5.02276 52.5088V21.7823C5.02276 19.9959 5.97576 18.3453 7.52276 17.4521L34.1327 2.08888Z" fill="#437FC8" fill-opacity="0.29"/>
<path d="M51.5816 51.1862C50.2985 51.1862 49.2547 52.2299 49.2547 53.5131C49.2547 54.7961 50.2985 55.8399 51.5816 55.8399C52.8646 55.8399 53.9084 54.7961 53.9084 53.5131C53.9084 52.23 52.8646 51.1862 51.5816 51.1862ZM51.5815 54.4609C51.0589 54.4609 50.6337 54.0357 50.6337 53.5131C50.6337 52.9905 51.0589 52.5653 51.5815 52.5653C52.1041 52.5653 52.5293 52.9905 52.5293 53.5131C52.5293 54.0357 52.1041 54.4609 51.5815 54.4609Z" fill="#404040"/>
<path d="M57.8508 53.3924C57.8069 51.6888 57.0858 50.1219 55.8204 48.9804L41.9379 36.4591L54.2125 24.1845C54.2932 24.1604 54.3729 24.1304 54.4498 24.0898L57.1079 22.6869C57.4751 22.493 57.7214 22.1462 57.7833 21.7357C57.8454 21.325 57.7126 20.9211 57.4189 20.6272L54.4261 17.6344C54.1324 17.3408 53.7287 17.208 53.3177 17.27C52.9072 17.332 52.5604 17.5783 52.3665 17.9456L50.9635 20.6035C50.9225 20.6811 50.891 20.7613 50.8669 20.8428L45.0731 26.6365C44.8038 26.9059 44.8038 27.3424 45.0731 27.6118C45.3425 27.8809 45.779 27.8809 46.0484 27.6118L51.365 22.295L52.7584 23.6883L39.1617 37.285L37.7683 35.8917L43.7032 29.957C43.9725 29.6876 43.9725 29.2511 43.7032 28.9817C43.4338 28.7126 42.9973 28.7126 42.7279 28.9817L38.4218 33.2878L33.7353 29.0608C35.064 25.2362 34.1018 20.9809 31.2194 18.0987C28.2671 15.1463 23.8381 14.2055 19.936 15.702C19.7179 15.7856 19.557 15.9739 19.5085 16.2023C19.4599 16.4308 19.5302 16.6682 19.6953 16.8334L25.1087 22.2468C25.2688 22.407 25.3571 22.6199 25.3571 22.8464C25.3571 23.0729 25.2689 23.2859 25.1087 23.4461L21.5931 26.9616C21.433 27.1219 21.22 27.2101 20.9935 27.2101C20.7671 27.2101 20.5541 27.122 20.3939 26.9616L14.9804 21.5482C14.8152 21.383 14.5779 21.3128 14.3494 21.3613C14.1209 21.4099 13.9327 21.5708 13.849 21.7888C12.3525 25.6908 13.2934 30.1198 16.2458 33.0723C19.0575 35.8839 23.2303 36.8739 26.9947 35.6575L30.6182 39.6199C30.4441 39.9601 30.2177 40.2774 29.9384 40.5566C28.8939 41.6011 27.3285 41.9302 25.95 41.3951C25.6952 41.296 25.4061 41.357 25.2127 41.5503L16.77 49.9929C14.4845 52.2785 14.4845 55.9974 16.77 58.2828C17.8774 59.3903 19.3495 60 20.9152 60C22.4809 60 23.9531 59.3903 25.0602 58.2831L33.5029 49.8405C33.6961 49.6473 33.757 49.3581 33.6581 49.1033C33.1229 47.7248 33.452 46.1592 34.4964 45.1147C35.541 44.0703 37.1065 43.7412 38.485 44.2763C38.74 44.3754 39.0289 44.3142 39.2222 44.1211L40.8148 42.5286C41.2943 42.049 41.5584 41.4114 41.5584 40.7333C41.5584 40.0552 41.2943 39.4176 40.8148 38.9381L40.1369 38.2602L40.9616 37.4355L54.8968 50.0044C55.8787 50.8901 56.4383 52.106 56.4724 53.4279C56.5064 54.7498 56.0101 55.9928 55.0751 56.9278C54.1445 57.8585 52.9046 58.3539 51.5914 58.3255C50.2756 58.2961 49.0619 57.7451 48.1737 56.7738L37.8124 45.4434C37.5551 45.1622 37.1192 45.1429 36.8382 45.3999C36.5572 45.6569 36.5377 46.0931 36.7947 46.374L47.1559 57.7045C48.3006 58.9561 49.8649 59.6663 51.5606 59.7041C51.608 59.7052 51.6554 59.7057 51.7028 59.7057C53.3453 59.7057 54.8843 59.0686 56.0502 57.9029C57.2552 56.6978 57.8946 55.096 57.8508 53.3924ZM52.2123 21.1919L53.5323 18.691L56.3623 21.521L53.8615 22.8411L52.2123 21.1919ZM27.7062 34.3921C27.5163 34.1847 27.2198 34.1131 26.9563 34.2114C23.5846 35.4691 19.7629 34.6392 17.2208 32.0974C14.9127 29.7892 14.0183 26.4428 14.8064 23.3246L19.4186 27.9369C19.8394 28.3575 20.3986 28.5891 20.9935 28.5891C21.5883 28.5891 22.1475 28.3575 22.5682 27.9369L26.0837 24.4213C26.5044 24.0006 26.736 23.4414 26.736 22.8465C26.736 22.2517 26.5044 21.6924 26.0837 21.2718L21.4716 16.6594C24.5895 15.8709 27.9362 16.7655 30.2443 19.0738C32.851 21.6804 33.6521 25.578 32.2853 29.0035C32.1783 29.2715 32.2495 29.5778 32.4639 29.7711L37.4454 34.2642L36.7931 34.9165L36.1152 34.2386C35.6357 33.7591 34.998 33.4951 34.32 33.4951C33.6419 33.4951 33.0042 33.7591 32.5247 34.2386L30.9321 35.8312C30.7389 36.0245 30.678 36.3136 30.777 36.5684C30.9604 37.0408 31.04 37.535 31.0263 38.0228L27.7062 34.3921ZM39.8395 41.5534L38.5491 42.8439C36.7744 42.3323 34.8433 42.8176 33.5213 44.1395H33.5212C32.1993 45.4615 31.7139 47.3923 32.2257 49.1674L24.0851 57.3078C23.2384 58.1545 22.1127 58.6209 20.9153 58.6209C19.718 58.6209 18.5921 58.1545 17.7455 57.3078C15.9977 55.56 15.9977 52.7161 17.7455 50.9682L25.8861 42.8277C27.6609 43.3395 29.5918 42.8538 30.9138 41.532C32.2357 40.21 32.7212 38.2791 32.2094 36.5042L33.4999 35.2138C33.9521 34.7615 34.688 34.7615 35.1401 35.2138L36.3056 36.3793L38.674 38.7477L39.8395 39.9132C40.2918 40.3655 40.2918 41.1013 39.8395 41.5534Z" fill="#404040"/>
<path d="M27.2669 45.432C26.9975 45.1628 26.5611 45.1628 26.2917 45.432L19.7598 51.9639C19.4905 52.2332 19.4905 52.6697 19.7598 52.9391C19.8945 53.0737 20.0711 53.141 20.2475 53.141C20.4238 53.141 20.6004 53.0737 20.7351 52.9391L27.2669 46.4072C27.5361 46.1379 27.5361 45.7013 27.2669 45.432Z" fill="#404040"/>
<path d="M29.6803 47.8455C29.411 47.5763 28.9745 47.5763 28.7051 47.8455L22.1732 54.3772C21.9039 54.6466 21.9039 55.0831 22.1732 55.3525C22.3079 55.487 22.4844 55.5543 22.6608 55.5543C22.8372 55.5543 23.0138 55.487 23.1485 55.3525L29.6803 48.8207C29.9496 48.5513 29.9496 48.1148 29.6803 47.8455Z" fill="#404040"/>
</svg>
