<svg width="74" height="74" viewBox="0 0 74 74" fill="none" xmlns="http://www.w3.org/2000/svg">
<path d="M34.1328 2.08888C35.6798 1.19572 37.5857 1.19572 39.1328 2.08888L65.7427 17.4521C67.2897 18.3453 68.2427 19.9959 68.2427 21.7823V52.5088C68.2427 54.2951 67.2897 55.9457 65.7427 56.8389L39.1328 72.2021C37.5857 73.0953 35.6798 73.0953 34.1328 72.2021L7.52282 56.8389C5.97582 55.9457 5.02282 54.2951 5.02282 52.5088V21.7823C5.02282 19.9959 5.97582 18.3453 7.52282 17.4521L34.1328 2.08888Z" fill="#437FC8" fill-opacity="0.29"/>
<g clip-path="url(#clip0_12_54)">
<path d="M53.3242 32.0538C53.3769 31.5795 53.3223 31.0994 53.1644 30.649C53.0064 30.1986 52.7493 29.7895 52.4119 29.4519C52.0745 29.1143 51.6655 28.8569 51.2153 28.6987C50.765 28.5405 50.2849 28.4856 49.8105 28.538C49.8231 28.4226 49.8295 28.3066 49.8297 28.1906C49.8297 27.3448 49.4937 26.5337 48.8956 25.9356C48.2975 25.3375 47.4864 25.0015 46.6406 25.0015C46.5246 25.0017 46.4086 25.0081 46.2932 25.0207C46.3654 24.3644 46.2319 23.7019 45.9112 23.1247C45.5906 22.5475 45.0986 22.0841 44.5032 21.7986C43.9078 21.5131 43.2385 21.4195 42.5877 21.5308C41.9368 21.6421 41.3366 21.9528 40.87 22.42L38.465 24.8249C38.1068 24.348 37.7155 23.8968 37.294 23.4747L34.4815 20.6622C33.4173 19.5979 31.9738 19 30.4687 19C28.9637 19 27.5202 19.5979 26.4559 20.6622C26.3907 20.7274 26.3389 20.8049 26.3035 20.8903C26.2682 20.9756 26.25 21.067 26.25 21.1593C26.25 21.2517 26.2682 21.3431 26.3035 21.4284C26.3389 21.5137 26.3907 21.5912 26.4559 21.6565L27.4751 22.6756C28.7846 23.9885 29.7248 25.6235 30.2007 27.4157C30.6766 29.2079 30.6715 31.0939 30.1859 32.8835C29.907 33.9063 29.7656 34.9617 29.7656 36.0219V40.5556L28.3594 41.9619L28.1534 41.7559C28.0216 41.624 27.8427 41.55 27.6562 41.55C27.4698 41.55 27.2909 41.624 27.1591 41.7559L24.8437 44.0712L24.6378 43.8653C24.5059 43.7334 24.3271 43.6593 24.1406 43.6593C23.9541 43.6593 23.7753 43.7334 23.6434 43.8653L15.2059 52.3028L16.2003 53.2971L24.1406 45.3568L35.8025 57.0187L32.7841 60.0372L33.7784 61.0315L37.294 57.5159C37.3593 57.4506 37.4111 57.3731 37.4465 57.2878C37.4818 57.2025 37.5 57.111 37.5 57.0187C37.5 56.9264 37.4818 56.8349 37.4465 56.7496C37.4111 56.6643 37.3593 56.5868 37.294 56.5215L36.385 55.6125L38.7003 53.2971C38.7656 53.2318 38.8174 53.1543 38.8527 53.069C38.8881 52.9837 38.9063 52.8923 38.9063 52.8C38.9063 52.7076 38.8881 52.6162 38.8527 52.5309C38.8174 52.4456 38.7656 52.3681 38.7003 52.3028L37.0881 50.6906L38.4944 49.2843H43.8281C43.9205 49.2843 44.0119 49.2661 44.0972 49.2308C44.1825 49.1955 44.26 49.1437 44.3253 49.0784L51.3565 42.0471L51.329 42.0196C51.4636 41.9216 51.5904 41.8133 51.7081 41.6956L55.9269 37.4768C56.3941 37.0101 56.7048 36.4097 56.8161 35.7587C56.9273 35.1077 56.8336 34.4382 56.5478 33.8428C56.2621 33.2473 55.7984 32.7554 55.2209 32.4349C54.6435 32.1145 53.9807 31.9813 53.3242 32.0538V32.0538ZM50.1562 29.9242C50.5089 29.924 50.8536 30.0284 51.1469 30.2242C51.4401 30.42 51.6687 30.6984 51.8037 31.0241C51.9387 31.3499 51.974 31.7083 51.9051 32.0542C51.8362 32.4 51.6663 32.7176 51.4169 32.9668L47.1981 37.1856C46.8638 37.5199 46.4103 37.7078 45.9375 37.7078C45.4647 37.7078 45.0112 37.5199 44.6769 37.1856C44.3425 36.8512 44.1547 36.3978 44.1547 35.925C44.1547 35.4521 44.3425 34.9987 44.6769 34.6643L48.8956 30.4456C49.061 30.2799 49.2576 30.1486 49.4739 30.0591C49.6903 29.9697 49.9221 29.9238 50.1562 29.9242V29.9242ZM47.9013 26.9299C48.2351 27.2645 48.4226 27.7179 48.4226 28.1906C48.4226 28.6632 48.2351 29.1166 47.9013 29.4512L43.6825 33.67C43.3482 34.0043 42.8947 34.1921 42.4219 34.1921C41.949 34.1921 41.4956 34.0043 41.1612 33.67C40.8269 33.3356 40.6391 32.8822 40.6391 32.4093C40.6391 31.9365 40.8269 31.483 41.1612 31.1487L45.38 26.9299C45.7146 26.5961 46.168 26.4086 46.6406 26.4086C47.1133 26.4086 47.5666 26.5961 47.9013 26.9299V26.9299ZM41.8644 23.4143C42.1987 23.08 42.6522 22.8921 43.125 22.8921C43.5978 22.8921 44.0513 23.08 44.3856 23.4143C44.72 23.7487 44.9078 24.2021 44.9078 24.675C44.9078 25.1478 44.72 25.6012 44.3856 25.9356L40.1669 30.1543C40.0013 30.3199 39.8048 30.4512 39.5885 30.5408C39.3722 30.6304 39.1404 30.6765 38.9062 30.6765C38.6721 30.6765 38.4403 30.6304 38.224 30.5408C38.0077 30.4512 37.8112 30.3199 37.6456 30.1543C37.4801 29.9888 37.3487 29.7923 37.2591 29.576C37.1695 29.3597 37.1234 29.1278 37.1234 28.8937C37.1234 28.6596 37.1695 28.4278 37.2591 28.2115C37.3487 27.9952 37.4801 27.7986 37.6456 27.6331L41.8644 23.4143ZM35.3906 54.6181L25.8381 45.0656L27.6562 43.2474L37.2088 52.8L35.3906 54.6181ZM43.5369 47.8781H38.2031C38.1108 47.8781 38.0194 47.8963 37.934 47.9316C37.8487 47.9669 37.7712 48.0187 37.7059 48.084L36.0937 49.6962L29.3537 42.9562L30.9659 41.344C31.0312 41.2787 31.083 41.2012 31.1183 41.1159C31.1537 41.0306 31.1719 40.9392 31.1719 40.8468V36.0219C31.1719 35.0867 31.2966 34.1557 31.5426 33.2535C32.0932 31.2247 32.0989 29.0866 31.5594 27.0549C31.0198 25.0231 29.954 23.1696 28.4694 21.6813L27.9884 21.2003C28.8112 20.6147 29.8148 20.3392 30.8212 20.4227C31.8277 20.5062 32.7721 20.9433 33.4872 21.6565L36.2997 24.469C36.7218 24.8913 37.1098 25.3464 37.46 25.8299L36.6513 26.6387C36.1836 27.1052 35.8724 27.7054 35.7608 28.3564C35.6492 29.0075 35.7427 29.6771 36.0283 30.2727C36.3139 30.8682 36.7776 31.3603 37.3551 31.6809C37.9326 32.0014 38.5955 32.1346 39.252 32.0619C39.2394 32.1773 39.233 32.2933 39.2328 32.4093C39.2317 32.9348 39.3611 33.4524 39.6094 33.9156V34.4688C39.6134 35.9533 39.323 37.4239 38.7549 38.7954C38.1868 40.1669 37.3523 41.4122 36.2997 42.459L37.294 43.4534C39.4907 41.2689 40.8065 38.3524 40.9906 35.2599C41.4346 35.4832 41.9249 35.5991 42.4219 35.5984C42.5379 35.5982 42.6539 35.5918 42.7693 35.5792C42.7167 36.0536 42.7715 36.5338 42.9296 36.9841C43.0878 37.4345 43.3452 37.8435 43.6828 38.181C44.0204 38.5184 44.4296 38.7755 44.8801 38.9334C45.3305 39.0913 45.8107 39.1458 46.2851 39.0929C46.1968 39.8881 46.4111 40.6875 46.8854 41.3318C47.3598 41.9761 48.0594 42.4182 48.8449 42.57L43.5369 47.8781ZM54.9325 36.4825L50.7138 40.7012C50.3794 41.0356 49.926 41.2234 49.4531 41.2234C48.9803 41.2234 48.5268 41.0356 48.1925 40.7012C47.8581 40.3669 47.6703 39.9134 47.6703 39.4406C47.6703 38.9677 47.8581 38.5143 48.1925 38.1799L52.4112 33.9612C52.7456 33.6268 53.199 33.439 53.6719 33.439C54.1447 33.439 54.5982 33.6268 54.9325 33.9612C55.2668 34.2955 55.4547 34.749 55.4547 35.2218C55.4547 35.6947 55.2668 36.1481 54.9325 36.4825V36.4825Z" fill="#404040"/>
<path d="M55.0781 52.7999C54.146 52.7989 53.2524 52.4281 52.5934 51.7691C51.9343 51.11 51.5636 50.2164 51.5625 49.2843C51.5625 49.0978 51.4884 48.919 51.3566 48.7871C51.2247 48.6553 51.0459 48.5812 50.8594 48.5812C50.6729 48.5812 50.4941 48.6553 50.3622 48.7871C50.2303 48.919 50.1562 49.0978 50.1562 49.2843C50.1552 50.2164 49.7845 51.11 49.1254 51.7691C48.4663 52.4281 47.5727 52.7989 46.6406 52.7999C46.4541 52.7999 46.2753 52.874 46.1434 53.0059C46.0116 53.1377 45.9375 53.3166 45.9375 53.5031C45.9375 53.6895 46.0116 53.8684 46.1434 54.0002C46.2753 54.1321 46.4541 54.2062 46.6406 54.2062C47.5727 54.2072 48.4663 54.578 49.1254 55.237C49.7845 55.8961 50.1552 56.7897 50.1562 57.7218C50.1562 57.9083 50.2303 58.0871 50.3622 58.219C50.4941 58.3508 50.6729 58.4249 50.8594 58.4249C51.0459 58.4249 51.2247 58.3508 51.3566 58.219C51.4884 58.0871 51.5625 57.9083 51.5625 57.7218C51.5636 56.7897 51.9343 55.8961 52.5934 55.237C53.2524 54.578 54.146 54.2072 55.0781 54.2062C55.2646 54.2062 55.4434 54.1321 55.5753 54.0002C55.7072 53.8684 55.7812 53.6895 55.7812 53.5031C55.7812 53.3166 55.7072 53.1377 55.5753 53.0059C55.4434 52.874 55.2646 52.7999 55.0781 52.7999ZM50.8594 55.1888C50.4428 54.4982 49.8642 53.9196 49.1736 53.5031C49.8642 53.0865 50.4428 52.5079 50.8594 51.8173C51.2759 52.5079 51.8546 53.0865 52.5451 53.5031C51.8546 53.9196 51.2759 54.4982 50.8594 55.1888V55.1888Z" fill="#404040"/>
<path d="M56.4844 22.5656C55.7387 22.5647 55.0238 22.2681 54.4966 21.7409C53.9693 21.2136 53.6727 20.4987 53.6719 19.7531C53.6719 19.5666 53.5978 19.3877 53.4659 19.2559C53.3341 19.124 53.1552 19.0499 52.9688 19.0499C52.7823 19.0499 52.6034 19.124 52.4716 19.2559C52.3397 19.3877 52.2656 19.5666 52.2656 19.7531C52.2648 20.4987 51.9682 21.2136 51.4409 21.7409C50.9137 22.2681 50.1988 22.5647 49.4531 22.5656C49.2666 22.5656 49.0878 22.6396 48.9559 22.7715C48.8241 22.9034 48.75 23.0822 48.75 23.2687C48.75 23.4552 48.8241 23.634 48.9559 23.7659C49.0878 23.8977 49.2666 23.9718 49.4531 23.9718C50.1988 23.9726 50.9137 24.2692 51.4409 24.7965C51.9682 25.3238 52.2648 26.0386 52.2656 26.7843C52.2656 26.9708 52.3397 27.1496 52.4716 27.2815C52.6034 27.4133 52.7823 27.4874 52.9688 27.4874C53.1552 27.4874 53.3341 27.4133 53.4659 27.2815C53.5978 27.1496 53.6719 26.9708 53.6719 26.7843C53.6727 26.0386 53.9693 25.3238 54.4966 24.7965C55.0238 24.2692 55.7387 23.9726 56.4844 23.9718C56.6709 23.9718 56.8497 23.8977 56.9816 23.7659C57.1134 23.634 57.1875 23.4552 57.1875 23.2687C57.1875 23.0822 57.1134 22.9034 56.9816 22.7715C56.8497 22.6396 56.6709 22.5656 56.4844 22.5656ZM52.9688 24.4546C52.6561 23.9845 52.253 23.5813 51.7829 23.2687C52.253 22.956 52.6561 22.5529 52.9688 22.0828C53.2814 22.5529 53.6845 22.956 54.1546 23.2687C53.6845 23.5813 53.2814 23.9845 52.9688 24.4546V24.4546Z" fill="#404040"/>
<path d="M19.2188 36.6281C19.2188 36.8145 19.2928 36.9934 19.4247 37.1252C19.5566 37.2571 19.7354 37.3312 19.9219 37.3312C20.1084 37.3312 20.2872 37.2571 20.4191 37.1252C20.5509 36.9934 20.625 36.8145 20.625 36.6281C20.6261 35.696 20.9968 34.8024 21.6559 34.1433C22.3149 33.4842 23.2085 33.1135 24.1406 33.1124C24.3271 33.1124 24.5059 33.0383 24.6378 32.9065C24.7697 32.7746 24.8438 32.5958 24.8438 32.4093C24.8438 32.2228 24.7697 32.044 24.6378 31.9121C24.5059 31.7803 24.3271 31.7062 24.1406 31.7062C23.2085 31.7051 22.3149 31.3344 21.6559 30.6753C20.9968 30.0162 20.6261 29.1226 20.625 28.1906C20.625 28.0041 20.5509 27.8252 20.4191 27.6934C20.2872 27.5615 20.1084 27.4874 19.9219 27.4874C19.7354 27.4874 19.5566 27.5615 19.4247 27.6934C19.2928 27.8252 19.2188 28.0041 19.2188 28.1906C19.2177 29.1226 18.847 30.0162 18.1879 30.6753C17.5288 31.3344 16.6352 31.7051 15.7031 31.7062C15.5166 31.7062 15.3378 31.7803 15.2059 31.9121C15.0741 32.044 15 32.2228 15 32.4093C15 32.5958 15.0741 32.7746 15.2059 32.9065C15.3378 33.0383 15.5166 33.1124 15.7031 33.1124C16.6352 33.1135 17.5288 33.4842 18.1879 34.1433C18.847 34.8024 19.2177 35.696 19.2188 36.6281V36.6281ZM19.9219 30.7235C20.3384 31.4141 20.9171 31.9927 21.6076 32.4093C20.9171 32.8259 20.3384 33.4045 19.9219 34.0951C19.5053 33.4045 18.9267 32.8259 18.2361 32.4093C18.9267 31.9927 19.5053 31.4141 19.9219 30.7235V30.7235Z" fill="#404040"/>
</g>
<defs>
<clipPath id="clip0_12_54">
<rect width="45" height="45" fill="white" transform="translate(15.2 19.1409)"/>
</clipPath>
</defs>
</svg>
