<svg width="74" height="74" viewBox="0 0 74 74" fill="none" xmlns="http://www.w3.org/2000/svg">
<path d="M34.1327 2.08888C35.6797 1.19572 37.5857 1.19572 39.1327 2.08888L65.7426 17.4521C67.2896 18.3453 68.2426 19.9959 68.2426 21.7823V52.5088C68.2426 54.2951 67.2896 55.9457 65.7426 56.8389L39.1327 72.2021C37.5857 73.0953 35.6797 73.0953 34.1327 72.2021L7.52276 56.8389C5.97576 55.9457 5.02276 54.2951 5.02276 52.5088V21.7823C5.02276 19.9959 5.97576 18.3453 7.52276 17.4521L34.1327 2.08888Z" fill="#437FC8" fill-opacity="0.29"/>
<g clip-path="url(#clip0_12_52)">
<path d="M36.0548 60.3916L34.8691 61.5773C34.3424 62.1039 34.7228 62.9999 35.4583 62.9999C35.6716 62.9999 35.8849 62.9185 36.0476 62.7558L38.6518 60.1517C38.9773 59.8263 38.9773 59.2986 38.6518 58.9732L36.0476 56.3691C35.7222 56.0436 35.1946 56.0436 34.8692 56.3691C34.5437 56.6945 34.5437 57.2221 34.8692 57.5475L36.0464 58.7247C24.7769 58.5371 15.6667 49.3131 15.6667 37.9999C15.6667 33.325 17.1854 28.9124 20.0587 25.2393C20.3422 24.8768 20.2782 24.353 19.9156 24.0695C19.5532 23.786 19.0295 23.8499 18.7458 24.2125C15.6412 28.1816 14 32.9492 14 37.9999C14 50.2648 23.8328 60.2102 36.0548 60.3916V60.3916ZM21.4713 23.2705C20.725 23.2705 20.3514 22.3541 20.8957 21.8344C21.2733 21.4729 21.7921 21.5286 22.0918 21.8402C22.6199 22.3893 22.1866 23.2705 21.4713 23.2705V23.2705ZM40.9792 42.8957H43.4792C43.9394 42.8957 44.3125 43.2689 44.3125 43.7291C44.3125 44.1893 43.9394 44.5624 43.4792 44.5624H40.9792C40.519 44.5624 40.1459 44.1893 40.1459 43.7291C40.1459 43.2689 40.519 42.8957 40.9792 42.8957ZM27.125 48.9374C27.125 48.4772 27.4981 48.1041 27.9583 48.1041H44.8334C45.7523 48.1041 46.5 47.3564 46.5 46.4374V29.5624C46.5 28.6434 45.7523 27.8957 44.8334 27.8957H40.5625V33.7291C40.5625 34.357 39.8925 34.7594 39.3382 34.465L36.3958 32.9018L33.4535 34.4649C32.8989 34.7596 32.2292 34.3565 32.2292 33.7291V30.8124C32.2292 30.3522 32.6023 29.9791 33.0625 29.9791C33.5227 29.9791 33.8958 30.3522 33.8958 30.8124V32.3427L36.0049 31.2223C36.2495 31.0924 36.5423 31.0924 36.7869 31.2223L38.8958 32.3427V27.8957H27.9583C27.0394 27.8957 26.2917 28.6434 26.2917 29.5624V44.3541C26.2917 44.8143 25.9186 45.1874 25.4583 45.1874C24.9981 45.1874 24.625 44.8143 24.625 44.3541V29.5624C24.625 27.7244 26.1203 26.2291 27.9583 26.2291H44.8334C46.6714 26.2291 48.1667 27.7244 48.1667 29.5624V46.4374C48.1667 48.2754 46.6714 49.7707 44.8334 49.7707H27.9583C27.4981 49.7707 27.125 49.3976 27.125 48.9374ZM57.125 37.9999C57.125 26.6867 48.0148 17.4626 36.7454 17.2752L37.9226 18.4524C38.4493 18.9789 38.069 19.8749 37.3333 19.8749C37.1201 19.8749 36.9068 19.7935 36.7441 19.6308L34.1399 17.0267C33.8144 16.7013 33.8144 16.1736 34.1399 15.8482L36.7441 13.2441C37.0695 12.9186 37.5971 12.9186 37.9225 13.2441C38.248 13.5695 38.248 14.0971 37.9225 14.4225L36.7368 15.6082C48.9507 15.7894 58.7917 25.727 58.7917 37.9999C58.7917 43.0505 57.1506 47.8182 54.0459 51.7874C53.7621 52.1502 53.2382 52.2138 52.8761 51.9304C52.5136 51.6469 52.4495 51.1231 52.733 50.7606C55.6064 47.0874 57.125 42.6748 57.125 37.9999V37.9999ZM51.9234 52.9872C52.2225 53.3006 52.2547 53.8221 51.8781 54.1824C51.5466 54.5014 51.0191 54.4914 50.6998 54.1595C50.3807 53.8277 50.3911 53.3002 50.7227 52.9811C51.1062 52.6144 51.6259 52.6754 51.9234 52.9872V52.9872Z" fill="#404040"/>
</g>
<defs>
<clipPath id="clip0_12_52">
<rect width="50" height="50" fill="white" transform="matrix(-1 0 0 1 63.6664 13.1409)"/>
</clipPath>
</defs>
</svg>
