<svg width="40" height="42" viewBox="0 0 40 42" fill="none" xmlns="http://www.w3.org/2000/svg">
<path d="M11.6085 27.6538H34.7505C37.3746 27.6538 39.5153 25.5131 39.5153 22.889V13.1523C39.5153 13.1436 39.5153 13.1264 39.5153 13.1177C39.5153 13.0918 39.5153 13.0746 39.5153 13.0487C39.5153 13.0314 39.5153 13.0142 39.5067 12.9969C39.5067 12.9796 39.498 12.9537 39.498 12.9365C39.498 12.9192 39.4894 12.9019 39.4894 12.8847C39.4808 12.8674 39.4808 12.8502 39.4721 12.8243C39.4635 12.807 39.4635 12.7897 39.4549 12.7725C39.4462 12.7552 39.4462 12.7379 39.4376 12.7207C39.429 12.7034 39.4203 12.6862 39.4117 12.6603C39.4031 12.643 39.3945 12.6257 39.3858 12.6171C39.3772 12.5998 39.3686 12.5826 39.3599 12.5653C39.3513 12.548 39.3427 12.5394 39.334 12.5221C39.3254 12.5049 39.3081 12.4876 39.2995 12.4704C39.2909 12.4531 39.2822 12.4445 39.265 12.4272C39.2563 12.4099 39.2391 12.4013 39.2304 12.384C39.2218 12.3668 39.2046 12.3581 39.1959 12.3409C39.1873 12.3236 39.17 12.315 39.1614 12.3063C39.1441 12.2891 39.1355 12.2805 39.1182 12.2632C39.101 12.2546 39.0923 12.2373 39.0751 12.2287C39.0578 12.22 39.0405 12.2028 39.0233 12.1941C39.006 12.1855 38.9974 12.1769 38.9801 12.1682C38.9629 12.1596 38.9456 12.151 38.9283 12.1337C38.9111 12.1251 38.8938 12.1164 38.8765 12.1078C38.8593 12.0992 38.842 12.0906 38.8247 12.0819C38.8075 12.0733 38.7902 12.0647 38.773 12.056C38.7557 12.0474 38.7384 12.0474 38.7212 12.0388C38.7039 12.0301 38.678 12.0215 38.6607 12.0215C38.6435 12.0215 38.6262 12.0129 38.6176 12.0129C38.5917 12.0042 38.5744 12.0042 38.5485 12.0042C38.5399 12.0042 38.5313 11.9956 38.514 11.9956L9.18291 7.94725V3.85575C9.18291 3.81259 9.18291 3.76943 9.17428 3.7349C9.17428 3.72627 9.17428 3.71764 9.16564 3.70037C9.16564 3.67448 9.15701 3.64858 9.15701 3.62269C9.14838 3.59679 9.14838 3.57953 9.13975 3.55363C9.13975 3.53637 9.13112 3.52774 9.13112 3.51047C9.12249 3.48458 9.11385 3.45868 9.10522 3.43279C9.10522 3.42415 9.09659 3.40689 9.09659 3.39826C9.08796 3.37236 9.07933 3.3551 9.06206 3.3292C9.05343 3.32057 9.05343 3.30331 9.0448 3.29468C9.03617 3.27741 9.02753 3.26015 9.01027 3.24289C9.00164 3.22562 8.99301 3.21699 8.98438 3.19973C8.97574 3.18246 8.96711 3.17383 8.95848 3.15657C8.94985 3.1393 8.93258 3.12204 8.92395 3.10478C8.91532 3.09614 8.90669 3.08751 8.89806 3.07888C8.88079 3.06162 8.86353 3.04435 8.84626 3.02709C8.83763 3.01846 8.829 3.00982 8.82037 3.00119C8.80311 2.98393 8.78584 2.96667 8.75995 2.9494C8.75131 2.94077 8.73405 2.93214 8.72542 2.92351C8.70815 2.90624 8.69089 2.89761 8.67363 2.88035C8.64773 2.86308 8.62184 2.84582 8.60457 2.83719C8.59594 2.82856 8.58731 2.82856 8.57868 2.81992C8.54415 2.80266 8.50099 2.7854 8.46646 2.76813L2.10477 0.0922531C1.50918 -0.158071 0.827258 0.118149 0.576933 0.713748C0.326609 1.30935 0.602829 1.99126 1.19843 2.24159L6.84367 4.62398V9.90669V10.744V17.1661V22.9063V30.1571C6.84367 32.574 8.65636 34.5766 10.9956 34.8787C10.5726 35.5865 10.3223 36.4152 10.3223 37.2956C10.3223 39.8938 12.4371 42 15.0267 42C17.6162 42 19.7311 39.8852 19.7311 37.2956C19.7311 36.4324 19.498 35.6124 19.0837 34.9218H29.5628C29.1484 35.621 28.9154 36.4324 28.9154 37.2956C28.9154 39.8938 31.0302 42 33.6197 42C36.2093 42 38.3241 39.8852 38.3241 37.2956C38.3241 34.706 36.2093 32.5912 33.6197 32.5912H11.6085C10.2619 32.5912 9.17428 31.495 9.17428 30.1571V26.9978C9.88209 27.4121 10.7194 27.6538 11.6085 27.6538ZM17.4091 37.287C17.4091 38.599 16.3387 39.6607 15.0353 39.6607C13.7319 39.6607 12.6616 38.5904 12.6616 37.287C12.6616 35.9836 13.7319 34.9132 15.0353 34.9132C16.3387 34.9132 17.4091 35.9749 17.4091 37.287ZM36.0021 37.287C36.0021 38.599 34.9318 39.6607 33.6284 39.6607C32.325 39.6607 31.2546 38.5904 31.2546 37.287C31.2546 35.9836 32.325 34.9132 33.6284 34.9132C34.9318 34.9132 36.0021 35.9749 36.0021 37.287ZM34.7505 25.3232H11.6085C10.2619 25.3232 9.17428 24.227 9.17428 22.889V17.1488V10.7267V10.2951L37.1847 14.1536V22.8804C37.1847 24.2356 36.0884 25.3232 34.7505 25.3232Z" fill="#595959"/>
</svg>
