<svg class="MuiSvgIcon-root-13025 jss12993 jss12994" focusable="false" viewBox="0 0 24 24" aria-hidden="true"><path d="M8.972 6.661c0 6.044 4.806 10.965 10.804 11.15A9.749 9.749 0 0111.761 22C6.371 22 2 17.63 2 12.239c0-4.683 3.298-8.596 7.698-9.542a11.125 11.125 0 00-.726 3.964zm5.331-2.407L15.536 2l1.232 2.254 2.254 1.232-2.254 1.233-1.232 2.253-1.233-2.253-2.253-1.233 2.253-1.232zm4.754 6.725l.986-1.803.986 1.803 1.803.986-1.803.986-.986 1.803-.986-1.803-1.803-.986 1.803-.986z" id="a"></path></svg>