<svg class="MuiSvgIcon-root-13423 jss13391" focusable="false" viewBox="0 0 24 24" aria-hidden="true"><path d="M12 19a1 1 0 011 1v2a1 1 0 11-2 0v-2a1 1 0 011-1zm-6.364-2.05a.999.999 0 111.414 1.414l-1.414 1.414a.997.997 0 01-1.414 0 .999.999 0 010-1.414zm11.314 0a.999.999 0 011.414 0l1.414 1.414a.999.999 0 11-1.414 1.414l-1.414-1.414a.999.999 0 010-1.414zM12 6c3.309 0 6 2.691 6 6s-2.691 6-6 6-6-2.691-6-6 2.691-6 6-6zm10 5a1 1 0 110 2h-2a1 1 0 110-2zM4 11a1 1 0 110 2H2a1 1 0 110-2zm14.364-6.779a1 1 0 011.414 1.414L18.364 7.05a.997.997 0 01-1.414 0 .999.999 0 010-1.414zm-14.142 0a1 1 0 011.414 0L7.05 5.636A.999.999 0 115.636 7.05L4.222 5.635a.999.999 0 010-1.414zM12 1a1 1 0 011 1v2a1 1 0 11-2 0V2a1 1 0 011-1z" id="a"></path></svg>