<svg width="21" height="21" viewBox="0 0 21 21" fill="none" xmlns="http://www.w3.org/2000/svg">
<g clip-path="url(#clip0_1_93)">
<path d="M20.2915 12.4366C20.2915 10.6479 19.0395 9.08722 17.1755 8.24255C17.2855 8.63255 17.3489 9.03522 17.3602 9.44855C17.5462 9.55922 17.7262 9.67855 17.8942 9.80855C18.8342 10.5339 19.3529 11.4666 19.3529 12.4366C19.3529 13.4059 18.8362 14.3392 17.8942 15.0632C16.8629 15.8586 15.4762 16.2972 13.9902 16.2972C12.9882 16.2972 12.0315 16.0972 11.1982 15.7246C10.6809 15.8266 10.1429 15.8912 9.58887 15.9139C10.7255 16.7679 12.2775 17.2952 13.9902 17.2952C15.0895 17.2952 16.1229 17.0792 17.0222 16.6972L19.3162 17.8679L18.8529 15.5272C19.7509 14.6872 20.2915 13.6106 20.2915 12.4366Z" fill="#6E6E6E"/>
<path d="M16.7076 8.79456C16.6949 8.38189 16.6329 7.97856 16.5236 7.58922C15.7229 4.73989 12.4349 2.60522 8.5009 2.60522C3.9669 2.60589 0.291565 5.44056 0.291565 8.93722C0.291565 10.4672 0.994898 11.8692 2.16623 12.9646L1.56223 16.0126L4.5509 14.4879C5.7229 14.9852 7.0689 15.2692 8.5009 15.2692C8.6469 15.2692 8.79223 15.2652 8.93623 15.2599C9.4889 15.2379 10.0276 15.1726 10.5462 15.0699C14.0902 14.3692 16.7102 11.8892 16.7102 8.93722C16.7096 8.88989 16.7089 8.84256 16.7076 8.79456ZM13.5882 12.3612C12.3436 13.3199 10.7016 13.8812 8.92623 13.9586C8.78557 13.9659 8.64357 13.9692 8.50023 13.9692C8.22556 13.9692 7.95423 13.9572 7.68556 13.9339C6.06023 13.7979 4.56623 13.2519 3.41357 12.3626C2.1889 11.4179 1.51423 10.2019 1.51423 8.93856C1.51423 7.67522 2.1889 6.45922 3.41357 5.51456C4.7569 4.47856 6.56356 3.90789 8.50023 3.90789C10.4376 3.90789 12.2449 4.47856 13.5869 5.51456C14.1949 5.98322 14.6662 6.51856 14.9889 7.09322C15.1929 7.45789 15.3362 7.83856 15.4156 8.22789C15.4629 8.46189 15.4869 8.69922 15.4869 8.93789C15.4869 10.2006 14.8129 11.4166 13.5882 12.3612Z" fill="#6E6E6E"/>
<path d="M11.413 9.85459C11.9089 9.85459 12.311 9.45255 12.311 8.95659C12.311 8.46064 11.9089 8.05859 11.413 8.05859C10.917 8.05859 10.515 8.46064 10.515 8.95659C10.515 9.45255 10.917 9.85459 11.413 9.85459Z" fill="#6E6E6E"/>
<path d="M8.50091 9.85459C8.99686 9.85459 9.39891 9.45255 9.39891 8.95659C9.39891 8.46064 8.99686 8.05859 8.50091 8.05859C8.00495 8.05859 7.60291 8.46064 7.60291 8.95659C7.60291 9.45255 8.00495 9.85459 8.50091 9.85459Z" fill="#6E6E6E"/>
<path d="M5.58891 9.85519C6.08523 9.85519 6.48758 9.45285 6.48758 8.95653C6.48758 8.46021 6.08523 8.05786 5.58891 8.05786C5.09259 8.05786 4.69025 8.46021 4.69025 8.95653C4.69025 9.45285 5.09259 9.85519 5.58891 9.85519Z" fill="#6E6E6E"/>
</g>
<defs>
<clipPath id="clip0_1_93">
<rect width="20" height="20" fill="white" transform="translate(0.291565 0.236572)"/>
</clipPath>
</defs>
</svg>
