<svg width="25" height="24" viewBox="0 0 25 24" fill="none" xmlns="http://www.w3.org/2000/svg">
<path d="M12.5007 0C9.05385 0 6.25073 2.691 6.25073 6C6.25073 9.309 9.05385 12 12.5007 12C15.9476 12 18.7507 9.309 18.7507 6C18.7507 2.691 15.9476 0 12.5007 0ZM12.5007 10.5C9.91635 10.5 7.81323 8.481 7.81323 6C7.81323 3.519 9.91635 1.5 12.5007 1.5C15.0851 1.5 17.1882 3.519 17.1882 6C17.1882 8.481 15.0851 10.5 12.5007 10.5Z" fill="#6E6E6E"/>
<path d="M18.6102 22.8193L13.1414 15.3193C12.8508 14.9203 12.1555 14.9203 11.8617 15.3193L6.39297 22.8193C6.14609 23.1583 6.23047 23.6263 6.58516 23.8633C6.93828 24.1018 7.42578 24.0193 7.67266 23.6803L12.5008 17.0578L17.3305 23.6803C17.482 23.8888 17.7242 23.9998 17.9695 23.9998C18.1258 23.9998 18.2805 23.9563 18.4195 23.8633C18.7727 23.6263 18.8586 23.1598 18.6102 22.8193Z" fill="#6E6E6E"/>
<path d="M20.2335 12.3629C19.9289 12.0704 19.4335 12.0704 19.1289 12.3629C15.471 15.8729 9.52573 15.8729 5.87105 12.3629C5.56636 12.0704 5.07104 12.0704 4.76636 12.3629C4.46167 12.6554 4.46167 13.1309 4.76636 13.4234C6.89917 15.4694 9.70073 16.4939 12.5007 16.4939C15.3007 16.4939 18.1023 15.4694 20.2335 13.4234C20.5382 13.1309 20.5382 12.6554 20.2335 12.3629Z" fill="#6E6E6E"/>
</svg>
