<svg width="20" height="21" viewBox="0 0 20 21" fill="none" xmlns="http://www.w3.org/2000/svg">
<g clip-path="url(#clip0_1_31)">
<path d="M8.80749 0.267334C3.95112 0.267334 -9.15527e-05 4.21854 -9.15527e-05 9.07491C-9.15527e-05 13.9316 3.95112 17.8825 8.80749 17.8825C13.6641 17.8825 17.6151 13.9316 17.6151 9.07491C17.6151 4.21854 13.6641 0.267334 8.80749 0.267334ZM8.80749 16.2565C4.8476 16.2565 1.62592 13.0348 1.62592 9.07495C1.62592 5.11507 4.8476 1.89335 8.80749 1.89335C12.7674 1.89335 15.989 5.11503 15.989 9.07491C15.989 13.0348 12.7674 16.2565 8.80749 16.2565Z" fill="#1A467C"/>
<path d="M19.7617 18.8795L15.1005 14.2182C14.7829 13.9006 14.2685 13.9006 13.9509 14.2182C13.6332 14.5355 13.6332 15.0505 13.9509 15.3678L18.6121 20.0291C18.7709 20.1879 18.9788 20.2673 19.1869 20.2673C19.3948 20.2673 19.6029 20.1879 19.7617 20.0291C20.0794 19.7117 20.0794 19.1968 19.7617 18.8795Z" fill="#1A467C"/>
</g>
<defs>
<clipPath id="clip0_1_31">
<rect width="20" height="20" fill="white" transform="translate(-9.15527e-05 0.267334)"/>
</clipPath>
</defs>
</svg>
