<svg width="15" height="14" viewBox="0 0 15 14" fill="none" xmlns="http://www.w3.org/2000/svg">
<path d="M14.2385 5.60636C14.1464 5.32288 13.8949 5.12218 13.5986 5.09537L9.55723 4.72846L7.96005 0.989143C7.84213 0.714419 7.57381 0.537109 7.27516 0.537109C6.97651 0.537109 6.70809 0.714419 6.59092 0.989143L4.99374 4.72846L0.95171 5.09537C0.65541 5.12271 0.404506 5.32341 0.311792 5.60636C0.219612 5.88984 0.304742 6.20078 0.528837 6.39731L3.5838 9.07609L2.68305 13.0433C2.61714 13.3351 2.73037 13.6367 2.9724 13.8117C3.1025 13.9062 3.25535 13.9534 3.40874 13.9534C3.54054 13.9534 3.67246 13.9184 3.79027 13.8479L7.27516 11.7641L10.7594 13.8479C11.015 14.0006 11.3364 13.9866 11.5779 13.8117C11.82 13.6367 11.9332 13.3351 11.8673 13.0433L10.9665 9.07609L14.0215 6.39731C14.2455 6.20078 14.3307 5.89049 14.2385 5.60636Z" fill="#FFA800"/>
</svg>
