<svg width="26" height="26" viewBox="0 0 26 26" fill="none" xmlns="http://www.w3.org/2000/svg">
<g clip-path="url(#clip0_1_40)">
<path d="M25.4869 3.26291C25.1815 2.88945 24.7241 2.68384 24.1988 2.68384C23.9133 2.68384 23.6108 2.74392 23.2999 2.86275L2.13789 10.9409C1.01484 11.3695 0.863588 12.0127 0.873315 12.3579C0.883042 12.7031 1.07053 13.3368 2.21609 13.7013C2.22295 13.7034 2.22982 13.7055 2.23669 13.7074L6.62626 14.9635L9.00014 21.7518C9.32382 22.6772 10.0503 23.2521 10.8964 23.2521C11.4299 23.2521 11.9546 23.0286 12.4139 22.6059L15.129 20.1059L19.0671 23.2769C19.0675 23.2773 19.0681 23.2775 19.0685 23.2779L19.1058 23.308C19.1093 23.3107 19.1129 23.3135 19.1163 23.3162C19.5541 23.6557 20.0319 23.835 20.4986 23.8352H20.4988C21.4107 23.8352 22.1368 23.1602 22.3483 22.1157L25.8157 4.99459C25.9549 4.30737 25.8382 3.69244 25.4869 3.26291ZM8.09473 14.7249L16.5635 10.3985L11.2903 16.0017C11.2039 16.0935 11.1427 16.2058 11.1125 16.3281L10.0957 20.4468L8.09473 14.7249ZM11.4215 21.5283C11.3864 21.5605 11.3511 21.5893 11.3159 21.6158L12.2592 17.795L13.9753 19.1769L11.4215 21.5283ZM24.38 4.70372L20.9127 21.825C20.8793 21.9889 20.7727 22.3702 20.4986 22.3702C20.3632 22.3702 20.193 22.2963 20.0189 22.1623L15.5565 18.5692C15.5559 18.5686 15.5551 18.568 15.5544 18.5677L12.8991 16.4295L20.5249 8.32654C20.7691 8.06714 20.7912 7.66984 20.5774 7.38488C20.3634 7.09992 19.9756 7.01028 19.6584 7.1724L7.11607 13.5799L2.66679 12.307L23.8223 4.23127C24.0011 4.16299 24.1258 4.14868 24.1988 4.14868C24.2437 4.14868 24.3234 4.15402 24.353 4.19045C24.3919 4.23795 24.4415 4.39988 24.38 4.70372Z" fill="#437FC8"/>
</g>
<defs>
<clipPath id="clip0_1_40">
<rect width="25" height="25" fill="white" transform="translate(0.872925 0.779541)"/>
</clipPath>
</defs>
</svg>
