<svg width="27" height="17" viewBox="0 0 27 17" fill="none" xmlns="http://www.w3.org/2000/svg">
<path d="M13.6631 16.9375C17.5691 16.9375 16.1764 14.4648 16.4779 13.7537C16.4734 13.2227 16.4689 12.712 16.4869 12.4015C16.7344 12.4713 17.3182 12.7671 18.5243 13.9394C20.3861 15.8181 20.862 16.9375 22.3661 16.9375H25.1347C26.0122 16.9375 26.469 16.5741 26.6974 16.2693C26.9179 15.9745 27.1339 15.457 26.8976 14.6515C26.28 12.712 22.6777 9.36287 22.4539 9.00963C22.4876 8.94438 22.5416 8.85775 22.5697 8.81275H22.5675C23.2785 7.87337 25.992 3.80762 26.3914 2.18087C26.3925 2.17862 26.3936 2.17525 26.3936 2.17188C26.6096 1.42937 26.4116 0.947875 26.2069 0.675625C25.8986 0.268375 25.4081 0.0625 24.7455 0.0625H21.9769C21.0499 0.0625 20.3468 0.529375 19.9913 1.381C19.3961 2.89412 17.7244 6.00588 16.4711 7.10725C16.4329 5.54688 16.4587 4.3555 16.479 3.47012C16.5195 1.74325 16.65 0.0625 14.8579 0.0625H10.5064C9.38363 0.0625 8.30925 1.28875 9.4725 2.7445C10.4895 4.02025 9.83812 4.73125 10.0575 8.2705C9.2025 7.35362 7.6815 4.8775 6.606 1.71288C6.3045 0.85675 5.84775 0.0636249 4.56187 0.0636249H1.79325C0.6705 0.0636249 0 0.675625 0 1.7005C0 4.00225 5.09513 16.9375 13.6631 16.9375ZM4.56187 1.75112C4.806 1.75112 4.83075 1.75113 5.01188 2.26525C6.11325 5.50863 8.58375 10.3079 10.3883 10.3079C11.7439 10.3079 11.7439 8.9185 11.7439 8.39537L11.7428 4.23063C11.6685 2.8525 11.1668 2.16625 10.8371 1.75L14.7836 1.7545C14.7859 1.77363 14.7611 6.36137 14.7949 7.47287C14.7949 9.05125 16.0481 9.95575 18.0045 7.97575C20.0689 5.64588 21.4965 2.16288 21.5539 2.02113C21.6383 1.81863 21.7114 1.75 21.9769 1.75H24.7455H24.7568C24.7556 1.75338 24.7556 1.75675 24.7545 1.76012C24.5014 2.94137 22.0028 6.70563 21.1669 7.8745C21.1534 7.8925 21.141 7.91163 21.1286 7.93075C20.7607 8.5315 20.4615 9.19525 21.1793 10.129H21.1804C21.2456 10.2078 21.4155 10.3923 21.663 10.6488C22.4325 11.443 25.0717 14.1587 25.3057 15.2387C25.1505 15.2635 24.9818 15.2455 22.3661 15.2511C21.8092 15.2511 21.3739 14.4186 19.7122 12.7424C18.2183 11.2889 17.2485 10.6949 16.3654 10.6949C14.6509 10.6949 14.7758 12.0865 14.7915 13.7695C14.7971 15.5942 14.7859 15.0171 14.7983 15.1319C14.6981 15.1713 14.4113 15.25 13.6631 15.25C6.525 15.25 1.8765 3.92013 1.69762 1.7545C1.7595 1.74888 2.61112 1.75225 4.56187 1.75112Z" fill="#6E6E6E"/>
</svg>
